<svg xmlns="http://www.w3.org/2000/svg" xmlns:xlink="http://www.w3.org/1999/xlink" viewBox="-120 -168 240 336" width="240" height="336">
<defs><symbol id="SC4" viewBox="-600 -600 1200 1200" preserveAspectRatio="xMinYMid"><path d="M30 150C35 385 85 400 130 500L-130 500C-85 400 -35 385 -30 150A10 10 0 0 0 -50 150A210 210 0 1 1 -124 -51A10 10 0 0 0 -110 -65A230 230 0 1 1 110 -65A10 10 0 0 0 124 -51A210 210 0 1 1 50 150A10 10 0 0 0 30 150Z" fill="#1c1a26"></path></symbol><symbol id="VC4" viewBox="-500 -500 1000 1000" preserveAspectRatio="xMinYMid"><path d="M50 460L250 460M150 460L150 -460L-300 175L-300 200L270 200" stroke="#1c1a26" stroke-width="80" stroke-linecap="square" stroke-miterlimit="1.5" fill="none"></path></symbol></defs>
<rect x="-119" y="-167" width="238" height="334" rx="14" ry="14" fill="#fffaf0" stroke="#c9b99a" stroke-width="2"/>
<g transform="scale(0.8)"><use xlink:href="#SC4" height="70" width="70" x="-87.501" y="-135.588"></use><use xlink:href="#SC4" height="70" width="70" x="17.501" y="-135.588"></use><g transform="rotate(180)"><use xlink:href="#SC4" height="70" width="70" x="-87.501" y="-135.588"></use><use xlink:href="#SC4" height="70" width="70" x="17.501" y="-135.588"></use></g></g>
<g><use xlink:href="#VC4" x="-117" y="-163" width="48" height="48"/><use xlink:href="#SC4" x="-113" y="-113" width="40" height="40"/></g>
<g transform="rotate(180)"><use xlink:href="#VC4" x="-117" y="-163" width="48" height="48"/><use xlink:href="#SC4" x="-113" y="-113" width="40" height="40"/></g>
</svg>
