<svg xmlns="http://www.w3.org/2000/svg" xmlns:xlink="http://www.w3.org/1999/xlink" viewBox="-120 -168 240 336" width="240" height="336">
<defs><symbol id="VDA" viewBox="-500 -500 1000 1000" preserveAspectRatio="xMinYMid"><path d="M-270 460L-110 460M-200 450L0 -460L200 450M110 460L270 460M-120 130L120 130" stroke="#c42a2a" stroke-width="80" stroke-linecap="square" stroke-miterlimit="1.5" fill="none"></path></symbol><symbol id="SDA" viewBox="-600 -600 1200 1200" preserveAspectRatio="xMinYMid"><path d="M-400 0C-350 0 0 -450 0 -500C0 -450 350 0 400 0C350 0 0 450 0 500C0 450 -350 0 -400 0Z" fill="#c42a2a"></path></symbol></defs>
<rect x="-119" y="-167" width="238" height="334" rx="14" ry="14" fill="#fffaf0" stroke="#c9b99a" stroke-width="2"/>
<g transform="scale(0.8)"><use xlink:href="#SDA" height="70" width="70" x="-35" y="-35"></use><g transform="rotate(180)"></g></g>
<g><use xlink:href="#VDA" x="-117" y="-163" width="48" height="48"/><use xlink:href="#SDA" x="-113" y="-113" width="40" height="40"/></g>
<g transform="rotate(180)"><use xlink:href="#VDA" x="-117" y="-163" width="48" height="48"/><use xlink:href="#SDA" x="-113" y="-113" width="40" height="40"/></g>
</svg>
