<svg xmlns="http://www.w3.org/2000/svg" xmlns:xlink="http://www.w3.org/1999/xlink" viewBox="-120 -168 240 336" width="240" height="336">
<defs><symbol id="SS7" viewBox="-600 -600 1200 1200" preserveAspectRatio="xMinYMid"><path d="M0 -500C100 -250 355 -100 355 185A150 150 0 0 1 55 185A10 10 0 0 0 35 185C35 385 85 400 130 500L-130 500C-85 400 -35 385 -35 185A10 10 0 0 0 -55 185A150 150 0 0 1 -355 185C-355 -100 -100 -250 0 -500Z" fill="#1c1a26"></path></symbol><symbol id="VS7" viewBox="-500 -500 1000 1000" preserveAspectRatio="xMinYMid"><path d="M-265 -320L-265 -460L265 -460C135 -200 -90 100 -90 460" stroke="#1c1a26" stroke-width="80" stroke-linecap="square" stroke-miterlimit="1.5" fill="none"></path></symbol></defs>
<rect x="-119" y="-167" width="238" height="334" rx="14" ry="14" fill="#fffaf0" stroke="#c9b99a" stroke-width="2"/>
<g transform="scale(0.8)"><use xlink:href="#SS7" height="70" width="70" x="-87.501" y="-135.501"></use><use xlink:href="#SS7" height="70" width="70" x="17.501" y="-135.501"></use><use xlink:href="#SS7" height="70" width="70" x="-87.501" y="-35"></use><use xlink:href="#SS7" height="70" width="70" x="17.501" y="-35"></use><use xlink:href="#SS7" height="70" width="70" x="-35" y="-85.25"></use><g transform="rotate(180)"><use xlink:href="#SS7" height="70" width="70" x="-87.501" y="-135.501"></use><use xlink:href="#SS7" height="70" width="70" x="17.501" y="-135.501"></use></g></g>
<g><use xlink:href="#VS7" x="-117" y="-163" width="48" height="48"/><use xlink:href="#SS7" x="-113" y="-113" width="40" height="40"/></g>
<g transform="rotate(180)"><use xlink:href="#VS7" x="-117" y="-163" width="48" height="48"/><use xlink:href="#SS7" x="-113" y="-113" width="40" height="40"/></g>
</svg>
